#VRML V2.0 utf8
# Simplified Samtec REF-182665 body 5.0 x 51.0 x 3.51 mm (ThlHats)
Transform { translation 0.5000 -9.5000 0.6909 children [ Shape { appearance Appearance { material Material { diffuseColor 0.08 0.08 0.08 } } geometry Box { size 1.9685 20.0787 1.3819 } } ] }
Transform { translation -0.5669 -0.0000 0.0394 children [ Shape { appearance Appearance { material Material { diffuseColor 0.85 0.75 0.3 } } geometry Box { size 0.2772 0.2362 0.0787 } } ] }
Transform { translation 1.5669 -0.0000 0.0394 children [ Shape { appearance Appearance { material Material { diffuseColor 0.85 0.75 0.3 } } geometry Box { size 0.2772 0.2362 0.0787 } } ] }
Transform { translation -0.5669 -1.0000 0.0394 children [ Shape { appearance Appearance { material Material { diffuseColor 0.85 0.75 0.3 } } geometry Box { size 0.2772 0.2362 0.0787 } } ] }
Transform { translation 1.5669 -1.0000 0.0394 children [ Shape { appearance Appearance { material Material { diffuseColor 0.85 0.75 0.3 } } geometry Box { size 0.2772 0.2362 0.0787 } } ] }
Transform { translation -0.5669 -2.0000 0.0394 children [ Shape { appearance Appearance { material Material { diffuseColor 0.85 0.75 0.3 } } geometry Box { size 0.2772 0.2362 0.0787 } } ] }
Transform { translation 1.5669 -2.0000 0.0394 children [ Shape { appearance Appearance { material Material { diffuseColor 0.85 0.75 0.3 } } geometry Box { size 0.2772 0.2362 0.0787 } } ] }
Transform { translation -0.5669 -3.0000 0.0394 children [ Shape { appearance Appearance { material Material { diffuseColor 0.85 0.75 0.3 } } geometry Box { size 0.2772 0.2362 0.0787 } } ] }
Transform { translation 1.5669 -3.0000 0.0394 children [ Shape { appearance Appearance { material Material { diffuseColor 0.85 0.75 0.3 } } geometry Box { size 0.2772 0.2362 0.0787 } } ] }
Transform { translation -0.5669 -4.0000 0.0394 children [ Shape { appearance Appearance { material Material { diffuseColor 0.85 0.75 0.3 } } geometry Box { size 0.2772 0.2362 0.0787 } } ] }
Transform { translation 1.5669 -4.0000 0.0394 children [ Shape { appearance Appearance { material Material { diffuseColor 0.85 0.75 0.3 } } geometry Box { size 0.2772 0.2362 0.0787 } } ] }
Transform { translation -0.5669 -5.0000 0.0394 children [ Shape { appearance Appearance { material Material { diffuseColor 0.85 0.75 0.3 } } geometry Box { size 0.2772 0.2362 0.0787 } } ] }
Transform { translation 1.5669 -5.0000 0.0394 children [ Shape { appearance Appearance { material Material { diffuseColor 0.85 0.75 0.3 } } geometry Box { size 0.2772 0.2362 0.0787 } } ] }
Transform { translation -0.5669 -6.0000 0.0394 children [ Shape { appearance Appearance { material Material { diffuseColor 0.85 0.75 0.3 } } geometry Box { size 0.2772 0.2362 0.0787 } } ] }
Transform { translation 1.5669 -6.0000 0.0394 children [ Shape { appearance Appearance { material Material { diffuseColor 0.85 0.75 0.3 } } geometry Box { size 0.2772 0.2362 0.0787 } } ] }
Transform { translation -0.5669 -7.0000 0.0394 children [ Shape { appearance Appearance { material Material { diffuseColor 0.85 0.75 0.3 } } geometry Box { size 0.2772 0.2362 0.0787 } } ] }
Transform { translation 1.5669 -7.0000 0.0394 children [ Shape { appearance Appearance { material Material { diffuseColor 0.85 0.75 0.3 } } geometry Box { size 0.2772 0.2362 0.0787 } } ] }
Transform { translation -0.5669 -8.0000 0.0394 children [ Shape { appearance Appearance { material Material { diffuseColor 0.85 0.75 0.3 } } geometry Box { size 0.2772 0.2362 0.0787 } } ] }
Transform { translation 1.5669 -8.0000 0.0394 children [ Shape { appearance Appearance { material Material { diffuseColor 0.85 0.75 0.3 } } geometry Box { size 0.2772 0.2362 0.0787 } } ] }
Transform { translation -0.5669 -9.0000 0.0394 children [ Shape { appearance Appearance { material Material { diffuseColor 0.85 0.75 0.3 } } geometry Box { size 0.2772 0.2362 0.0787 } } ] }
Transform { translation 1.5669 -9.0000 0.0394 children [ Shape { appearance Appearance { material Material { diffuseColor 0.85 0.75 0.3 } } geometry Box { size 0.2772 0.2362 0.0787 } } ] }
Transform { translation -0.5669 -10.0000 0.0394 children [ Shape { appearance Appearance { material Material { diffuseColor 0.85 0.75 0.3 } } geometry Box { size 0.2772 0.2362 0.0787 } } ] }
Transform { translation 1.5669 -10.0000 0.0394 children [ Shape { appearance Appearance { material Material { diffuseColor 0.85 0.75 0.3 } } geometry Box { size 0.2772 0.2362 0.0787 } } ] }
Transform { translation -0.5669 -11.0000 0.0394 children [ Shape { appearance Appearance { material Material { diffuseColor 0.85 0.75 0.3 } } geometry Box { size 0.2772 0.2362 0.0787 } } ] }
Transform { translation 1.5669 -11.0000 0.0394 children [ Shape { appearance Appearance { material Material { diffuseColor 0.85 0.75 0.3 } } geometry Box { size 0.2772 0.2362 0.0787 } } ] }
Transform { translation -0.5669 -12.0000 0.0394 children [ Shape { appearance Appearance { material Material { diffuseColor 0.85 0.75 0.3 } } geometry Box { size 0.2772 0.2362 0.0787 } } ] }
Transform { translation 1.5669 -12.0000 0.0394 children [ Shape { appearance Appearance { material Material { diffuseColor 0.85 0.75 0.3 } } geometry Box { size 0.2772 0.2362 0.0787 } } ] }
Transform { translation -0.5669 -13.0000 0.0394 children [ Shape { appearance Appearance { material Material { diffuseColor 0.85 0.75 0.3 } } geometry Box { size 0.2772 0.2362 0.0787 } } ] }
Transform { translation 1.5669 -13.0000 0.0394 children [ Shape { appearance Appearance { material Material { diffuseColor 0.85 0.75 0.3 } } geometry Box { size 0.2772 0.2362 0.0787 } } ] }
Transform { translation -0.5669 -14.0000 0.0394 children [ Shape { appearance Appearance { material Material { diffuseColor 0.85 0.75 0.3 } } geometry Box { size 0.2772 0.2362 0.0787 } } ] }
Transform { translation 1.5669 -14.0000 0.0394 children [ Shape { appearance Appearance { material Material { diffuseColor 0.85 0.75 0.3 } } geometry Box { size 0.2772 0.2362 0.0787 } } ] }
Transform { translation -0.5669 -15.0000 0.0394 children [ Shape { appearance Appearance { material Material { diffuseColor 0.85 0.75 0.3 } } geometry Box { size 0.2772 0.2362 0.0787 } } ] }
Transform { translation 1.5669 -15.0000 0.0394 children [ Shape { appearance Appearance { material Material { diffuseColor 0.85 0.75 0.3 } } geometry Box { size 0.2772 0.2362 0.0787 } } ] }
Transform { translation -0.5669 -16.0000 0.0394 children [ Shape { appearance Appearance { material Material { diffuseColor 0.85 0.75 0.3 } } geometry Box { size 0.2772 0.2362 0.0787 } } ] }
Transform { translation 1.5669 -16.0000 0.0394 children [ Shape { appearance Appearance { material Material { diffuseColor 0.85 0.75 0.3 } } geometry Box { size 0.2772 0.2362 0.0787 } } ] }
Transform { translation -0.5669 -17.0000 0.0394 children [ Shape { appearance Appearance { material Material { diffuseColor 0.85 0.75 0.3 } } geometry Box { size 0.2772 0.2362 0.0787 } } ] }
Transform { translation 1.5669 -17.0000 0.0394 children [ Shape { appearance Appearance { material Material { diffuseColor 0.85 0.75 0.3 } } geometry Box { size 0.2772 0.2362 0.0787 } } ] }
Transform { translation -0.5669 -18.0000 0.0394 children [ Shape { appearance Appearance { material Material { diffuseColor 0.85 0.75 0.3 } } geometry Box { size 0.2772 0.2362 0.0787 } } ] }
Transform { translation 1.5669 -18.0000 0.0394 children [ Shape { appearance Appearance { material Material { diffuseColor 0.85 0.75 0.3 } } geometry Box { size 0.2772 0.2362 0.0787 } } ] }
Transform { translation -0.5669 -19.0000 0.0394 children [ Shape { appearance Appearance { material Material { diffuseColor 0.85 0.75 0.3 } } geometry Box { size 0.2772 0.2362 0.0787 } } ] }
Transform { translation 1.5669 -19.0000 0.0394 children [ Shape { appearance Appearance { material Material { diffuseColor 0.85 0.75 0.3 } } geometry Box { size 0.2772 0.2362 0.0787 } } ] }
